<?xml version="1.0" encoding="utf-8"?>
<!-- Generator: Adobe Illustrator 22.1.0, SVG Export Plug-In . SVG Version: 6.00 Build 0)  -->
<svg version="1.1" id="Layer_1" xmlns="http://www.w3.org/2000/svg" xmlns:xlink="http://www.w3.org/1999/xlink" x="0px" y="0px"
	 viewBox="0 0 482 263" style="enable-background:new 0 0 482 263;" xml:space="preserve">
<style type="text/css">
	.st0{fill:#1424EB;}
	.st1{fill:#1629E8;}
	.st2{fill:#32A497;}
	.st3{fill:#256CBC;}
	.st4{fill:#193ED9;}
	.st5{fill:#2260C3;}
	.st6{fill:#1733E1;}
	.st7{fill:#2F999E;}
	.st8{fill:#2D8FA5;}
	.st9{fill:#2676B5;}
	.st10{fill:#256FBA;}
	.st11{fill:#2A86AB;}
	.st12{fill:#1D4FCE;}
	.st13{fill:#287DB1;}
	.st14{fill:#2363C1;}
	.st15{fill:#205AC8;}
	.st16{fill:#1833E1;}
	.st17{fill:#1F57CA;}
	.st18{fill:#1B45D5;}
	.st19{fill:#2D90A5;}
	.st20{fill:#2E989F;}
	.st21{fill:#287EB1;}
	.st22{fill:#1C48D3;}
	.st23{fill:#2A86AA;}
	.st24{fill:#193BDB;}
	.st25{fill:#162BE6;}
	.st26{fill:#000CEA;}
	.st27{fill:#434CEF;}
	.st28{fill:#0314EA;}
	.st29{fill:#0419E5;}
	.st30{fill:#0316E7;}
	.st31{fill:#051DE3;}
	.st32{fill:#0316E8;}
	.st33{fill:#229993;}
	.st34{fill:#239E90;}
	.st35{fill:#145DBA;}
	.st36{fill:#1564B5;}
	.st37{fill:#1561B7;}
	.st38{fill:#092CD9;}
	.st39{fill:#092FD8;}
	.st40{fill:#0B34D4;}
	.st41{fill:#0A31D6;}
	.st42{fill:#1152C0;}
	.st43{fill:#1256BE;}
	.st44{fill:#1150C3;}
	.st45{fill:#1359BC;}
	.st46{fill:#0621E1;}
	.st47{fill:#0828DC;}
	.st48{fill:#0725DF;}
	.st49{fill:#209396;}
	.st50{fill:#1F8E99;}
	.st51{fill:#1E8C9C;}
	.st52{fill:#1C82A2;}
	.st53{fill:#1E899E;}
	.st54{fill:#1D86A0;}
	.st55{fill:#1972AC;}
	.st56{fill:#1668B2;}
	.st57{fill:#176BB0;}
	.st58{fill:#186EAF;}
	.st59{fill:#176DAF;}
	.st60{fill:#1A78A9;}
	.st61{fill:#1A7BA6;}
	.st62{fill:#1B7FA3;}
	.st63{fill:#0E44CA;}
	.st64{fill:#0D41CC;}
	.st65{fill:#1974AB;}
	.st66{fill:#135ABC;}
	.st67{fill:#104BC6;}
	.st68{fill:#1151C1;}
	.st69{fill:#114FC3;}
	.st70{fill:#0F48C8;}
	.st71{fill:#0620E1;}
	.st72{fill:#0F49C7;}
	.st73{fill:#104DC5;}
	.st74{fill:#0A34D4;}
	.st75{fill:#0C3CD0;}
	.st76{fill:#0C39D2;}
	.st77{fill:#0D40CC;}
	.st78{fill:#0C38D2;}
	.st79{fill:#0C3ECE;}
	.st80{fill:#092FD7;}
	.st81{fill:#082BDA;}
	.st82{fill:#FA9928;}
	.st83{fill:#EBE7EF;}
	.st84{fill:#F9F2EA;}
	.st85{fill:#8B95FD;}
	.st86{fill:#0000E9;}
	.st87{fill:#E2E0F4;}
	.st88{fill:#EEEBF4;}
	.st89{fill:#F1E8E1;}
	.st90{fill:#FEFEFE;}
	.st91{fill:#D8D6E7;}
	.st92{fill:#0247BD;}
	.st93{fill:#0317E7;}
	.st94{fill:#0418E6;}
	.st95{fill:#061DE4;}
	.st96{fill:#FE9F1D;}
	.st97{fill:#1A1CDF;}
	.st98{fill:#000CE6;}
	.st99{fill:#B8765B;}
	.st100{fill:#0010F0;}
	.st101{fill:#000CE9;}
	.st102{fill:#000EF3;}
	.st103{fill:#1A22EA;}
	.st104{fill:#0011EE;}
	.st105{fill:#F4952C;}
	.st106{fill:#0009E4;}
	.st107{fill:#0005E7;}
	.st108{fill:#0656B3;}
	.st109{fill:#034BBA;}
	.st110{fill:#0444C2;}
	.st111{fill:#0A69A7;}
	.st112{fill:#075FAD;}
	.st113{fill:#FA931C;}
	.st114{fill:#FEEDBA;}
	.st115{fill:#0844C6;}
	.st116{fill:#0B34D5;}
	.st117{fill:#0D39D2;}
	.st118{fill:#0639CD;}
	.st119{fill:#0016DC;}
	.st120{fill:#0331CC;}
	.st121{fill:#0028D0;}
	.st122{fill:#0020D5;}
	.st123{fill:#003EC3;}
	.st124{fill:#0017DC;}
	.st125{fill:#002BCF;}
	.st126{fill:#0021D5;}
	.st127{fill:#0034C9;}
	.st128{fill:#000DE2;}
	.st129{fill:#0010E0;}
	.st130{fill:#001ADA;}
	.st131{fill:#0122DB;}
	.st132{fill:#0E46C9;}
	.st133{fill:#032DD4;}
	.st134{fill:#0727DD;}
	.st135{fill:#0726DD;}
	.st136{fill:#0C3BD1;}
	.st137{fill:#092DD8;}
</style>
<g>
	<path class="st0" d="M202.3,14.1c0,76.7,0,153.4,0.1,230.2c0,0.8-0.2,1.7-0.2,2.5c-0.9,0.2-1.6-0.1-2-0.9
		c-1.6-3.7-1.1-7.6-1.1-11.4c0-66.9,0-133.8,0-200.7c0-1.9,0-3.8,0-5.8c0-10.3-0.2-10.5-10.3-10.6c-3.8,0-7.7,0.1-11.5-0.1
		c-1.2-0.1-2.3-0.2-3.5-0.3c-1.1-0.1-2.2-0.4-3.2-1c-0.7-0.5-0.8-1.2-0.3-1.9C180.9,14.1,191.6,14.1,202.3,14.1z"/>
	<path class="st1" d="M201,246.9c0.4,0,0.7,0,1.1,0c-1.4,2.6-3.8,1.2-5.7,1.2c-59.8,0.1-119.5,0.1-179.3,0.1c0-5.1,0-10.3,0-15.4
		c0.7-0.2,1.3-0.1,1.8,0.5c0.8,1.2,1,2.5,1.1,3.9c0.2,2,0.1,4.1,0.5,6.1c1.2,2.7,3.6,1.7,5.6,1.8c8.5,0.2,16.9,0,25.4,0.1
		c46.1-0.6,92.3-0.1,138.4-0.2C193.7,244.8,197.7,244.1,201,246.9z"/>
	<path class="st2" d="M17.1,42.4c0-8.4,0.2-16.7-0.1-25.1c-0.1-2.8,0.5-3.5,3.3-3.3c4,0.3,8.1,0.1,12.2,0.1c0.4,0.7,0.3,1.3-0.3,1.9
		c-1.9,1.2-4,1.1-6.1,1.2c-4.2-0.3-6.2,1.5-5.9,5.8c0.2,2.7,0,5.4,0.1,8.1c-0.2,3.6,0.6,7.2-1.2,10.6C18.6,42.3,17.9,42.6,17.1,42.4
		z"/>
	<path class="st3" d="M17.1,138.9c0-6.4,0-12.9,0-19.3c0.7-0.2,1.3,0,1.8,0.6c1.3,2.2,1.1,4.6,1.2,7.1c0,1.7,0,3.4,0,5.1
		c0,2.1,0,4.2-1.2,6C18.5,138.9,17.9,139.1,17.1,138.9z"/>
	<path class="st4" d="M17.1,213.4c0-6.4,0-12.9,0-19.3c0.7-0.2,1.3-0.1,1.8,0.5c1.2,1.8,1.1,3.8,1.2,5.8c0,1,0,2,0,2.9
		c0,2,0,3.9-0.1,5.9c-0.1,1.3-0.3,2.6-1.1,3.8C18.4,213.5,17.8,213.7,17.1,213.4z"/>
	<path class="st5" d="M17.1,138.9c0.4,0,0.9,0,1.3,0c0.2,0.2,0.5,0.5,0.7,0.7c0.7,1.2,0.8,2.5,0.9,3.8c0.1,1.9,0.1,3.9,0.1,5.8
		c0,1.6,0,3.2-0.1,4.9c-0.1,1.3-0.3,2.6-1.1,3.8c-0.5,0.5-1.1,0.7-1.8,0.4C17.1,151.7,17.1,145.3,17.1,138.9z"/>
	<path class="st6" d="M17.1,213.4c0.4,0,0.8,0,1.3,0c0.2,0.2,0.5,0.5,0.7,0.7c1,1.9,0.9,3.9,1,5.9c0,1.7,0,3.3,0,5
		c-0.1,2.4,0.2,4.8-1,7c-0.2,0.2-0.5,0.5-0.7,0.7c-0.4,0-0.8,0-1.3,0C17.1,226.3,17.1,219.9,17.1,213.4z"/>
	<path class="st7" d="M17.1,42.4c0.4,0,0.9,0,1.3,0c0.2,0.2,0.5,0.5,0.7,0.7c1.2,2.2,0.9,4.7,1,7.1c0,2.4,0,4.7-0.1,7.1
		c-0.1,1-0.4,2-1,2.9c-0.5,0.6-1.2,0.6-1.8,0.2C17.1,54.4,17.1,48.4,17.1,42.4z"/>
	<path class="st8" d="M17.1,60.4c0.4,0,0.9,0,1.3,0c0.8,0.7,1.2,1.6,1.5,2.7c0.3,2,0.2,4,0.3,6.1c0,1.7,0,3.3-0.2,5
		c-0.1,1-0.4,2-1,2.8c-0.5,0.5-1.1,0.6-1.8,0.2C17.1,71.6,17.1,66,17.1,60.4z"/>
	<path class="st9" d="M18.4,119.6c-0.4,0-0.9,0-1.3,0c0-5.1,0-10.3,0-15.4c0.6-0.4,1.1-0.4,1.7,0c0.4,0.5,0.7,1.1,0.8,1.7
		c0.3,1.6,0.3,3.1,0.4,4.7c0,1.6,0,3.1-0.1,4.7c-0.1,1.3-0.2,2.5-0.9,3.7C18.9,119.1,18.6,119.4,18.4,119.6z"/>
	<path class="st10" d="M78.9,14.1c5.1,0,10.3,0,15.4,0c0.3,0.7,0.1,1.2-0.4,1.7c-1.1,0.8-2.4,1-3.7,1.1c-1.6,0.1-3.2,0.1-4.8,0.1
		c-1.6,0-3.2,0-4.8-0.3c-0.6-0.2-1.2-0.4-1.7-0.8C78.4,15.3,78.4,14.7,78.9,14.1z"/>
	<path class="st11" d="M17.1,77.1c0.4,0,0.9,0,1.3,0c0.8,0.7,1.2,1.6,1.4,2.6c0.3,1.6,0.2,3.3,0.3,5c0,2,0,4-0.3,5.9
		c-0.2,0.7-0.4,1.3-0.8,1.8c-0.6,0.5-1.1,0.6-1.8,0.1C17.1,87.4,17.1,82.3,17.1,77.1z"/>
	<path class="st12" d="M17.1,182.6c0-4.3,0-8.6,0-12.9c0.7-0.2,1.3,0,1.8,0.5c1.3,2.2,1.1,4.6,1.1,6.9c0,1.7-0.1,3.4-1.1,4.9
		C18.5,182.6,17.9,182.8,17.1,182.6z"/>
	<path class="st13" d="M78.9,14.1c0,0.4,0,0.9,0,1.3c-1.2,1.4-3,1.5-4.7,1.6c-1.3,0-2.7,0-4,0c-1.3-0.1-2.6-0.3-3.8-1.1
		c-0.5-0.5-0.7-1.1-0.4-1.8C70.3,14.1,74.6,14.1,78.9,14.1z"/>
	<path class="st14" d="M94.3,15.4c0-0.4,0-0.9,0-1.3c4.3,0,8.6,0,12.9,0c0.2,0.6,0.1,1.2-0.4,1.7c-1.4,1-2.9,1.1-4.5,1.1
		c-1.2,0-2.5,0-3.7,0c-1.3-0.1-2.5-0.2-3.6-0.8C94.7,15.9,94.5,15.6,94.3,15.4z"/>
	<path class="st15" d="M107.1,15.4c0-0.4,0-0.8,0-1.3c4.3,0,8.6,0,12.9,0c0.3,0.3,0.4,0.7,0.3,1.1c-0.1,0.4-0.2,0.6-0.3,0.6
		c-0.5,0.4-1,0.7-1.6,0.8c-1.2,0.3-2.4,0.3-3.6,0.3c-1.2,0-2.4,0-3.6,0c-1.2,0-2.4-0.2-3.5-0.8C107.6,15.9,107.3,15.6,107.1,15.4z"
		/>
	<path class="st16" d="M152.1,14.1c3.9,0,7.7,0,11.6,0c0.2,0.6,0.1,1.2-0.4,1.7c-1.4,1-2.9,1.1-4.5,1.1c-0.9,0-1.9,0-2.8,0
		c-1.3-0.1-2.5-0.3-3.6-1.1c-0.3-0.3-0.5-0.7-0.5-1.1C152,14.3,152.1,14.1,152.1,14.1z"/>
	<path class="st17" d="M18.4,169.7c-0.4,0-0.9,0-1.3,0c0-3.9,0-7.7,0-11.6c0.4,0,0.8,0,1.3,0c0.2,0.2,0.5,0.4,0.7,0.7
		c1,1.8,0.8,3.7,0.9,5.6c0,1.6-0.1,3.2-0.9,4.6C18.9,169.3,18.7,169.5,18.4,169.7z"/>
	<path class="st18" d="M131.6,14.1c3.9,0,7.7,0,11.6,0c0.2,0.6,0.1,1.2-0.4,1.7c-1.4,1-2.9,1.1-4.5,1.1c-0.9,0-1.9,0-2.8,0
		c-1.3-0.1-2.5-0.3-3.6-1.1c-0.3-0.3-0.5-0.7-0.5-1.1C131.4,14.3,131.5,14.1,131.6,14.1z"/>
	<path class="st12" d="M131.6,14.1c0,0.4,0,0.9,0,1.3c-0.2,0.2-0.4,0.5-0.7,0.7c-1.4,0.8-3,0.8-4.6,0.9c-1.6,0-3.2,0-4.7-0.4
		c-0.6-0.2-1.1-0.6-1.5-1.1c0-0.4,0-0.8,0-1.3C123.9,14.1,127.7,14.1,131.6,14.1z"/>
	<path class="st19" d="M44.1,14.1c3.9,0,7.7,0,11.6,0c0.2,0.2,0.3,0.5,0.5,0.7c-0.2,0.6-0.5,1-1.1,1.3c-1.4,0.6-2.8,0.6-4.3,0.6
		c-1.1,0-2.2,0-3.3-0.1c-0.8,0-1.6-0.1-2.4-0.4c-0.5-0.2-1-0.5-1.3-0.9C43.6,15,43.7,14.5,44.1,14.1z"/>
	<path class="st20" d="M44.1,14.1c0,0.4,0,0.9,0,1.3c-1,1.2-2.3,1.5-3.7,1.6c-2.1,0.1-4.2,0.2-6.2-0.4c-0.7-0.2-1.2-0.6-1.7-1.2
		c0-0.4,0-0.9,0-1.3C36.4,14.1,40.3,14.1,44.1,14.1z"/>
	<path class="st21" d="M17.1,92.6c0.4,0,0.9,0,1.3,0c1.9,1.8,1.7,4.1,1.8,6.4c-0.1,1.9-0.2,3.8-1.8,5.2c-0.4,0-0.9,0-1.3,0
		C17.1,100.3,17.1,96.4,17.1,92.6z"/>
	<path class="st22" d="M17.1,182.6c0.4,0,0.8,0,1.3,0c0.2,0.2,0.4,0.4,0.6,0.6c0.4,0.8,0.6,1.6,0.7,2.5c0.1,1.2,0.1,2.3,0.1,3.5
		c0,1.5-0.1,3-0.8,4.3c-0.2,0.2-0.4,0.4-0.7,0.6c-0.4,0-0.9,0-1.3,0C17.1,190.3,17.1,186.4,17.1,182.6z"/>
	<path class="st23" d="M55.7,15.4c0-0.4,0-0.9,0-1.3c3.4,0,6.9,0,10.3,0c0,0.4,0,0.9,0,1.3c-0.2,0.2-0.4,0.4-0.6,0.7
		c-1.4,0.8-2.9,0.8-4.5,0.8c-0.9,0-1.9,0-2.8-0.2C57.1,16.6,56.3,16.2,55.7,15.4z"/>
	<path class="st24" d="M143.1,15.4c0-0.4,0-0.8,0-1.3c3,0,6,0,9,0c0,0.4,0,0.8,0,1.3c-0.2,0.2-0.4,0.4-0.6,0.6
		c-0.8,0.5-1.7,0.7-2.5,0.7c-1.8,0.1-3.6,0.2-5.2-0.7C143.5,15.9,143.3,15.6,143.1,15.4z"/>
	<path class="st25" d="M163.7,15.4c0-0.4,0-0.8,0-1.3c2.1,0,4.3,0,6.4,0c0,0.4,0,0.8,0,1.3c-0.6,0.8-1.4,1.1-2.3,1.2
		c-1.2,0.1-2.4,0-3.5-0.6C164.1,15.9,163.9,15.6,163.7,15.4z"/>
	<path class="st26" d="M324.4,102.7c-11.4,0.7-11.4,0.7-11.4,12.2c0,13.3-0.3,26.6,0.1,39.8c0.2,5.5-2.8,5.1-6.3,4.9
		c-3.3-0.2-7.1,1.6-7-4.8c0.3-42,0.2-83.9,0.1-125.9c0-3.4,0.6-5,4.5-4.8c9.2,0.3,18.4,0.2,27.6,0.1c30-0.2,39.6,26.7,33.9,49.3
		c-2.6,10.2-8.5,18.3-17.6,23.5c-3.9,2.2-3.1,3.9-1.5,6.9c9.6,18.3,19,36.7,28.9,55.8c-4.1,0-7.2-0.2-10.4,0c-3.7,0.3-5.5-1-7.2-4.6
		c-8.4-17.5-17.3-34.8-26-52.2C329.6,100.8,327,101.1,324.4,102.7z"/>
	<path class="st26" d="M459.3,159.7c-4.4,1.1-6.6-1.1-7.8-6.4c-2.4-10.8-5.9-21.4-8.2-32.3c-1.2-5.8-3.7-7.4-9.4-7.1
		c-8.5,0.6-17.1,0.3-25.7,0.1c-3.4-0.1-4.7,1-5.6,4.4c-3.1,12.4-6.5,24.7-9.9,37c-0.9,3.4-10.3,6.3-12.5,3.8c-1.4-1.6,0-3.6,0.5-5.4
		c7-24.8,14-49.6,21-74.4c4.8-17,10-33.9,14.4-51c1.3-5,4.2-4.2,7.5-4.4c3.6-0.1,6.1-0.1,7.4,4.6c11.5,41.9,23.2,83.7,35.1,125.5
		C468.2,161.4,463.6,159.5,459.3,159.7z"/>
	<path class="st26" d="M270.9,82.5c-0.3,1.9-0.6,3.4-0.7,4.8c-0.6,5.5-3.5,7.2-9,6.8c-7.7-0.5-15.4,0.1-23.1-0.2
		c-3.8-0.1-5.3,0.7-5.2,4.9c0.3,14.8,0.2,29.6,0,44.4c0,3.6,1,4.7,4.7,4.7c13.3-0.2,26.6-0.2,39.9,0.1c1.7,0,6.5-2.4,5.3,2.3
		c-0.8,3.3,0.9,9.5-6,9.4c-10.9,0-21.9,0-32.8,0c-6.4,0-12.9-0.1-19.3,0.1c-3.1,0.1-4.5-0.5-4.5-4.1c0.1-42.4,0.1-84.9,0-127.3
		c0-3.6,1.3-4.2,4.5-4.2c17.4,0.1,34.7,0.1,52.1,0c3.8,0,3.8,1.2,3.5,4.6c-0.8,7-3.7,9.5-11,8.9c-10.2-0.8-20.6,0-30.8-0.3
		c-4-0.1-5.6,0.7-5.5,5.2c0.3,11.6,0.4,23.1,0,34.7c-0.2,4.8,1.6,5.6,5.8,5.5C249.2,82.3,259.7,82.5,270.9,82.5z"/>
	<path class="st27" d="M324.4,102.7c2.7-3.6,5.3-4.2,7.7,0.2C329.5,102.9,327,102.8,324.4,102.7z"/>
	<path class="st28" d="M201,246.9c-50.1,0-100.3,0-150.4,0c-1.7-3.3,1.1-3.6,3-4.2c20.4-6.3,38.6-16.7,54.6-30.9
		c4.6-4.1,5.5-4.8,6-8.3c-0.8-0.3-1.7-0.5-2.4-0.9c-1.2-0.9-1.6-2-1-3.4c0.5-0.5,1-0.9,1.7-1.1c8.1-1.5,16.4,0.6,24.5-1.2
		c0.5-0.4,0.9-0.9,1.3-1.4c1.3-6.7,0.2-13.5,0.6-20.3c0.1-2.3-0.1-4.7,0.6-6.9c5-5.8,6.5-13.7,11.4-19.6c1.4-1,3.2-1,4.6-1.9
		c2.4-2.8,1.3-6.1,1.4-9.2c0.3-6.6-0.5-13.2,0.5-19.7c2.7-6.3,3.5-13.2,7.4-19c2.8-2.4,6.8-0.3,9.6-2.6c0.4-0.9,0.4-1.8,0.4-2.7
		c0-6.7-0.1-13.3,0-19.9c0-3.3-0.5-6.4-2.6-9c-0.3-0.7-0.5-1.4-0.6-2.2c3-12.6,1.7-25.5,2-38.2c0.1-2.9-0.5-6,1.8-8.5
		c7.1,0,14.1,0.1,21.2,0c3.2-0.1,4.9,1,4.6,4.4c-0.1,1.1,0,2.1,0,3.2C201,97.6,201,172.2,201,246.9z"/>
	<path class="st29" d="M167.6,15.4c0.9,0,1.7,0,2.6,0c0.9,0,1.7,0,2.6,0c1.5,1.8,1.3,4,1.3,6.1c0,11.7,0.5,23.4-1.4,35
		c-0.6,3.6-1.4,5.9-5.6,3.7c-1.5-2.1-1.4-4.4-1.4-6.8c0.1-10.5,0.1-21,0.1-31.5C165.8,19.7,165.8,17.3,167.6,15.4z"/>
	<path class="st30" d="M167.6,60.4c1.6-0.1,3.3,0.2,3.7-2.4c1.8-14.2,1.4-28.4,1.5-42.6c0.9,0,1.7,0,2.6,0c0,9.4-0.2,18.8,0.1,28.1
		c0.2,6.7-0.3,13.2-2.6,19.4c-2,1.6-4.1,1.8-6.3,0.5C165.6,62,165.1,60.7,167.6,60.4z"/>
	<path class="st29" d="M111,199.3c0,1,0.3,2,1.3,2.5c0.8,2.9-1.4,4.3-3,5.9c-15.6,15-33.3,26.6-54.3,32c-7.3,1.9-15,2.8-22.4,4.7
		c-4.8,0.3-9.7,1.6-14.1-1.4c0-2.1,0-4.3,0-6.4c1.2-1.1,2.6-1.7,4.1-1.6c10.9,1.1,21.2-1.8,31.5-4.3c15-3.6,28.1-11.3,40.2-20.6
		c3.7-2.8,7.5-5.6,10.3-9.6C106.1,198.1,108.4,197.1,111,199.3z"/>
	<path class="st31" d="M111,199.3c-1.8,0.2-3.5-0.4-5.1,1.6c-13.1,16-30.7,25.2-49.9,31.2c-12,3.8-24.7,5.9-37.6,4.4
		c0-1.3,0-2.6,0-3.9c0,0,0,0,0,0c1.9-1.8,4.3-1.6,6.6-1.7c15.2-0.3,29.1-5.8,43.1-11c13.3-4.9,24-13.5,34-23.2
		c2.9-0.7,5.8-0.9,8.5,0.5C111.3,197.9,111.4,198.5,111,199.3L111,199.3z"/>
	<path class="st32" d="M18.4,243c5.1,0,10.3,0,15.4,0c14.4-1.6,28.5-4.5,41.3-11.4c14.7-7.9,28.6-16.9,39.7-29.7
		c4.8-0.2,3.2,2.5,1.5,4.1c-4.9,4.7-10,9.3-15.2,13.6C87,231.5,70.5,239,52.9,244.3c-1.5,0.4-2.2,1.2-2.3,2.6c-9.1,0-18.2,0-27.3,0
		C20.5,246.9,18.1,246.8,18.4,243z"/>
	<path class="st33" d="M32.6,15.4c0.4,0,0.9,0,1.3,0c0,10.3-4,19-10.9,26.4c-1.1,1.2-2.8,2-4.5,0.6c0,0,0,0,0,0c0-3.9,0-7.7,0-11.6
		c3.1-4.9,4.8-10.4,7.7-15.4C28.3,15.4,30.4,15.4,32.6,15.4z"/>
	<path class="st34" d="M26.1,15.4c-0.3,6.3-2.7,11.5-7.7,15.4c0-2.5,0.3-5.1-0.1-7.5C17.5,17.1,19.6,14.2,26.1,15.4z"/>
	<path class="st35" d="M18.4,138.9c0-2.1,0-4.3,0-6.4c8.5-4.8,18.7-5.4,27-10.9c3.2-2.1,6-5.6,10.7-4.5c1.4,1.9,1.3,3.9,0.9,6
		c-0.2,0.7-0.4,1.3-0.8,1.9c-9,8.2-20.1,11.7-31.6,14.2C22.6,139.7,20.4,140.4,18.4,138.9L18.4,138.9z"/>
	<path class="st36" d="M18.4,127.3c0-2.6,0-5.1,0-7.7c0,0,0,0,0,0c1.1-1,2.4-1.9,3.9-2c10.8-0.9,19.4-6.7,28-12.4
		c1.7-1.1,3.5-2.6,5.7-0.8c1.3,1.9,1.3,3.9,0.4,6c-9.2,10.3-21.7,14.3-34.5,17.8C20.7,128.5,19.5,128.2,18.4,127.3z"/>
	<path class="st37" d="M18.4,127.3c11.1-3.5,22.9-5.1,31.8-13.8c1.4-1.3,3.1-3,5.5-2.9c1.9,2.1,1.9,4.3,0,6.4
		c-9.8,7-20.7,11.8-32.2,15.2c-1.6,0.5-3.4,0.2-5.1,0.3C18.4,130.7,18.4,129,18.4,127.3z"/>
	<path class="st38" d="M18.4,213.4c0-1.3,0-2.6,0-3.9c3.2-2.4,7.2-2.3,10.9-3c12.1-2.2,24.2-3.8,35.4-9.6c5.5-2.8,9.8-7.4,15.5-9.9
		c2.8,0.4,6,0.3,5.6,4.6c-3.4,6.3-9.7,9-15.5,11.8c-14.2,6.8-29.2,11.5-45.2,11.7C22.7,215.2,20.3,215.2,18.4,213.4L18.4,213.4z"/>
	<path class="st39" d="M79.8,187.7c-5.5,6.9-13.1,10.6-20.9,13.7c-13,5.1-26.7,6.9-40.5,8.2c0-2.1,0-4.3,0-6.4
		c2.3-2.1,5.1-1.7,7.9-1.7c15.9-0.2,30.4-4.9,43.9-13.1c2.2-1.3,4-3.1,5.9-4.8C78.7,183.8,81.7,183.6,79.8,187.7z"/>
	<path class="st40" d="M18.4,200.6c0-2.1,0-4.3,0-6.4c0,0,0,0,0,0c1.7-1.6,3.9-1.8,6-1.7c16.3,0.6,30.4-5.8,44.2-13.4
		c0.8-0.4,1.5-0.8,2.4-0.9c1.2,0.1,1.9,0.8,2.4,1.9c1,3.9-1.6,5.9-4.2,7.8c-9,6.6-19.5,9.5-30.2,11.5c-4.4,0.8-8.7,2.1-13.1,2.4
		C23.3,201.9,20.6,202.5,18.4,200.6z"/>
	<path class="st41" d="M18.4,200.6c17.8-2,35.5-4,50.7-14.9c2.4-1.7,3.4-3.5,3.5-6.3c2.3,0.7,3,2.7,3.6,4.7c0.4,2.7-1.6,3.5-3.4,4.7
		c-16.6,10.6-34.7,15.4-54.4,14.3C18.4,202.3,18.4,201.4,18.4,200.6z"/>
	<path class="st42" d="M18.4,154.3c0-1.7,0-3.4,0-5.1c0.9-1.6,2.2-2.6,4-2.7c9.3-0.8,17.6-4.3,25.8-8.6c2.4-1.2,4.9-2.8,7.8-1.6
		c1,1.2,1.2,2.6,1.2,4c-0.1,2.6-1.3,4.4-3.6,5.5c-8.7,3.9-17.1,8.6-26.7,9.8C24,155.9,21,156.5,18.4,154.3z"/>
	<path class="st43" d="M55.7,136.3c-8.5,3.7-16.9,7.6-25.4,11.1c-3.7,1.5-8.1-0.6-11.8,1.7c0-2.1,0-4.3,0-6.4
		c3.4-2.6,7.7-2.1,11.5-3.6c6.3-2.5,13-4.1,19-7.5c2.1-1.2,4.7-2.3,7.2-0.3C57.2,133,57.2,134.7,55.7,136.3z"/>
	<path class="st44" d="M18.4,154.3c13.2,0.9,24.1-5.7,35.6-10.4c1.9-0.8,1.6-2.3,1.7-3.7c0.4-0.4,1-0.7,1.6-0.7
		c0.6,0.1,1.1,0.5,1.4,1c0.3,1.6-0.1,3.1-0.2,4.6c-0.2,1.3-0.6,2.6-1.6,3.6C47,154.7,37,159.9,25,159.9c-2.3,0-4.7,0-6.6-1.7
		c0,0,0,0,0,0C18.4,156.9,18.4,155.6,18.4,154.3z"/>
	<path class="st45" d="M55.7,131.1c-8.5,1.8-15.6,7.3-24.3,9.3c-4.3,1-8.5,2.5-13,2.3c0-1.3,0-2.6,0-3.9c13.4-2,25.7-7.1,37.3-14.1
		C57.6,126.9,57.6,129,55.7,131.1z"/>
	<path class="st46" d="M102.3,197.8c-7.3,10.1-17.4,16.6-28.4,21.6c-10.3,4.7-21.1,8.3-32.1,11.1c-7.7,2-15.5,2.4-23.4,2.1
		c0-2.6,0-5.1,0-7.7c1.9-1.8,4.3-1.5,6.7-1.7c24.6-2,47.3-9,66.3-25.7c1.3-1.2,2.7-2.1,4.5-2.4C98.3,195.2,101.2,194.5,102.3,197.8z
		"/>
	<path class="st47" d="M18.4,213.4c15.1,1.1,29-3.5,43.1-8.3c9-3.1,16.3-8.4,23.8-13.6c3.1-1.3,5.5-0.9,6.7,2.7
		c-3.9,6.3-10.5,9.4-16.5,12.8c-15.4,8.7-31.9,14-49.8,14.5c-2.5,0.1-5.2,0.2-7.3-1.7C18.4,217.7,18.4,215.6,18.4,213.4z"/>
	<path class="st48" d="M18.4,219.9c7.9,0.5,16.1,0.8,23.4-1.6c13.6-4.6,28.2-7.3,39.7-17c3.2-2.7,6.8-4.7,10.3-7.1
		c2.6-1.2,4.4-1.1,4.1,2.5c-5.4,3.7-10.4,7.8-15.7,11.5c-7.6,5.3-15.9,8.9-24.4,11.3c-12.1,3.4-24.4,7.1-37.3,5.6
		C18.4,223.3,18.4,221.6,18.4,219.9z"/>
	<path class="st49" d="M18.4,42.4c7.4-2.2,8.8-9.2,11.5-15c1.8-3.8,2.6-8,3.9-12c2.1,0,4.3,0,6.4,0c2.6,4.5-1.2,8.1-2,12
		c-1.7,7.8-5.7,14.7-11.5,20.3c-2.2,2.1-4.6,4.8-8.3,2.4C18.4,47.6,18.4,45,18.4,42.4z"/>
	<path class="st50" d="M18.4,50.1c6.8-0.3,9.6-5.9,12.8-10.5c5-7.2,6.4-16,9.1-24.2c1.3,0,2.6,0,3.9,0c0,0,0,0,0,0
		c2.1,4.1-0.2,8-1.2,11.7C40.1,39,35,49.7,24.2,56.6c-1.7,1.1-3.4,2.9-5.7,1.3C18.4,55.3,18.4,52.7,18.4,50.1z"/>
	<path class="st51" d="M18.4,57.9C32,52,37.7,40.3,41.5,27.2c1.1-3.9,1.8-7.8,2.7-11.8c0.9,0,1.7,0,2.6,0c3,6.3-0.4,12.2-1.8,17.8
		c-2.9,11.6-9.5,21.2-19.7,28c-2,1.3-4,3.5-6.8,1.8c0-0.9,0-1.7,0-2.6C18.4,59.6,18.4,58.7,18.4,57.9z"/>
	<path class="st52" d="M55.7,15.4c0.9,0,1.7,0,2.6,0c2.5,3,1.6,6.4,1.2,9.8c-1,9.4-3.7,18.5-7.8,26.9C45.8,64,37.4,73.8,25,79.5
		c-2.1,1-4.3,2.1-6.6,0.2c0-0.9,0-1.7,0-2.6c0-0.9,0-1.7,0-2.6c2.5-4,6.9-5.6,10.5-8.1C41.9,57.3,47.4,44,50.3,29.2
		C51.3,24.3,50.4,18.6,55.7,15.4L55.7,15.4z"/>
	<path class="st53" d="M18.4,63C33,56.2,41.1,44.5,44.1,29.1c0.9-4.6,2.9-8.9,2.6-13.7c1.3,0,2.6,0,3.9,0c3.2,4.3,0.5,8.8-0.2,12.9
		c-3,16.8-10,31.2-26,39.6c-1.8,1-3.6,2.5-5.9,1.5C18.4,67.3,18.4,65.1,18.4,63z"/>
	<path class="st54" d="M18.4,69.4c23.2-10.6,30.5-30.6,32.1-54c1.7,0,3.4,0,5.1,0c-3.8,6.4-3.3,13.9-5.1,20.8
		C45.9,54.1,35.4,67,18.4,74.6C18.4,72.9,18.4,71.1,18.4,69.4z"/>
	<path class="st55" d="M18.4,104.1c0-1.7,0-3.4,0-5.1c0.9-1.6,2.3-2.3,4-2.9c11.1-4.1,21.2-9.7,28.4-19.6c1.3-1.8,3-4,5.7-1.4
		c1.3,3,1.1,6.1,0.2,9.2c-7.8,11.3-19,17.5-31.6,21.7c-2.2,0.8-4.6,1.3-6.7-0.6C18.4,105,18.4,104.6,18.4,104.1z"/>
	<path class="st56" d="M55.7,104.1c-5.2,3.1-10.8,5.8-15.6,9.4c-6.6,4.8-14.3,4.6-21.6,6.1c0-1.3,0-2.6,0-3.9
		c3.2-4.4,8.7-4,13.1-5.8c6.9-2.7,12.8-6.5,18.5-11c1.7-1.4,3.3-3.5,6.1-2.4c1.5,2.2,1.4,4.6,0.4,6.9
		C56.2,103.6,56,103.9,55.7,104.1z"/>
	<path class="st57" d="M55.7,96.4c-10.6,9.9-23.1,16.2-37.3,19.3c0-1.7,0-3.4,0-5.1c2.8-3.5,7.1-3.5,10.8-4.7
		c7.4-2.5,13.7-6.7,19.2-12.3c2-2.1,4.2-5.1,8-3C57.4,92.7,57.5,94.7,55.7,96.4z"/>
	<path class="st58" d="M55.7,90c-4,2.4-7.5,5.4-10.7,8.8c-5.2,5.2-11.6,7.9-18.8,9.3c-2.6,0.5-5.2,1.6-7.8,2.5c0-1.7,0-3.4,0-5.1
		c8.9-0.9,16.3-4.9,23.7-9.6c5.1-3.2,8.5-8,13.5-11c0.8,0.7,1.1,1.6,1.2,2.6C56.8,88.4,56.5,89.3,55.7,90z"/>
	<path class="st59" d="M73.7,15.4c1.7,0,3.4,0,5.1,0c0.4,0,0.9,0,1.3,0c2.4,5.2,3.2,10.4,1.9,16.1c-1.7,7.4-1,15.2-4,22.6
		c-1.8,4.5-3.6,8.1-8.3,9.7c-4.1,0.6-5.3-1.5-4-4.9c1.9-5.2,2.8-10.7,4.8-15.9c2.4-6.3,2.7-13.3,2.2-20.2
		C72.4,20.2,71.8,17.6,73.7,15.4z"/>
	<path class="st56" d="M69.9,63c8.1-7.7,8.4-17.6,9.6-27.9c0.8-6.7,0.5-13.1,0.7-19.6c1.7,0,3.4,0,5.1,0c3.3,7.8,2.1,15.8,0.8,23.6
		c-1,6.2-1.4,12.7-4.2,18.5c-0.8,1.7-0.9,3.3,1.5,4c1.1,0.8,2.9,1.3,1.5,3.2c-4.8,2-9.7,1.8-14.6,0.2C69.6,64.5,69.5,63.8,69.9,63z"
		/>
	<path class="st36" d="M82.7,63c-3.5,0.1-5.4,0.4-3.2-4.6c6-13.6,6.3-28.3,5.8-42.9c1.7,0,3.4,0,5.1,0c3.9,6.6,1.6,13.8,0.8,20.5
		c-0.8,6.6-2,13.4-3.8,19.9C86.7,58.9,85.5,61.4,82.7,63z"/>
	<path class="st37" d="M82.7,63c3.2-6.2,3.7-13.1,5.3-19.8c2.2-9.2,2.3-18.5,2.4-27.8c1.3,0,2.6,0,3.9,0c0,0,0,0,0,0
		c1.9,2.1,1.9,4.7,1.6,7.3c-1.4,11.2-1.1,22.6-4,33.7c-0.4,1.4-1,2.9,0.1,4.3c1.7,0.9,3.9,0.5,5.6,1.7c0.9,0.9,1.3,1.8,0,2.7
		c-4.2,1.3-8.4,2.2-12.2-1C84.4,63.7,83.6,63.4,82.7,63z"/>
	<path class="st60" d="M55.7,74.6c-0.8,0.3-1.8,0.5-2.2,1C45,88.2,32.6,94.9,18.4,99c0-2.1,0-4.3,0-6.4c0-0.4,0-0.9,0-1.3
		c1-1.9,2.7-2.6,4.5-3.2C36.5,83.4,46,73.8,52.8,61.6c7-12.6,10.7-26.4,11.6-40.8c0.1-1.9,0.2-3.8,1.7-5.3c0,0,0,0,0,0
		c1.3,0,2.6,0,3.9,0c1.8,1.9,2,4.3,1.7,6.6c-1.2,9.4-1.7,19-4.9,28.1c-1,2.8-1.7,5.9-3.6,8.1c-2.5,3,4.1,4.4,0.9,7.2
		c-3.8,2.2-3.6,5.9-3.6,9.6c0,18.5,0,37.1-0.1,55.6c0,3.3,0.8,6.9-2.4,9.5l-0.5,0l-0.5,0c-1.2-5.5-0.3-11.1-0.6-16.6
		c0-6.4,0-12.7,0-19.1c0-5.4,0-10.8,0-16.2c0-6.4,0-12.9,0-19.2C56,70.7,56.9,72.7,55.7,74.6z"/>
	<path class="st61" d="M66,15.4c0,20.5-5.2,39.4-17.7,55.8c-7.6,10-17.4,17.2-29.9,20c0-2.1,0-4.3,0-6.4c2-3.7,6.2-3.4,9.2-5.2
		c17.9-11.1,26.9-27.8,30.7-48c1-5.4,0.3-11,2.5-16.2C62.6,15.4,64.3,15.4,66,15.4z"/>
	<path class="st62" d="M60.9,15.4c0.8,16.8-3.1,32.9-12.3,46.7c-7.1,10.6-16.4,20-30.1,22.7c0-1.7,0-3.4,0-5.1
		c4.5,0,8.2-2.4,11.6-4.8c15.6-11,23.8-26.5,26.9-45c0.8-4.8,1.8-9.6,1.3-14.5C59.1,15.4,60,15.4,60.9,15.4z"/>
	<path class="st63" d="M18.4,177.4c0-2.6,0-5.1,0-7.7c0,0,0,0,0,0c1.3-1.3,3-1.8,4.7-1.6c9.7,0.7,18.2-3.4,27.1-6.1
		c4-1.2,5.5-5.2,9-6.7c3.7,2.3,5.2,5.7,4.8,10c-5.7,5.5-13.6,6.5-20.5,9.3c-5.4,2.2-11.6,2.4-17.3,4.2
		C23.7,179.6,20.8,179.5,18.4,177.4z"/>
	<path class="st64" d="M18.4,177.4c15.9-0.9,30.5-6.3,44.9-12.6c3.1-0.1,2.1,2,2,3.7c-10.5,7.8-22.3,12.3-35.3,13
		c-3.9,0.2-7.5,3.8-11.6,1.1c0,0,0,0,0,0C18.4,180.9,18.4,179.1,18.4,177.4z"/>
	<path class="st65" d="M64.7,64.1c-1.4-2-4.2-0.2-5.7-2.1c9.3-14.2,10.1-30.4,10.9-46.6c1.3,0,2.6,0,3.9,0c-0.3,5.8,1,11.5,0.5,17.6
		c-0.7,9.3-4.9,17.2-7,25.8c-0.7,3.1-1,4.4,2.6,4.2c0,0.4,0,0.7,0,1.1C68.1,65.8,66.4,65.8,64.7,64.1z"/>
	<path class="st43" d="M98.1,64.1c-0.4-0.4-0.9-0.7-1.3-1.1C94.1,56.8,98,51,98,44.9c0.1-8,2.1-16,2.1-24.1c0-2,0.5-3.8,1.8-5.3
		c1.7,0,3.4,0,5.1,0c0,0,0,0,0,0c3,4.2,1.9,9.1,1.5,13.6c-0.9,9.3-1.6,18.6-3.6,27.8c-0.3,1.6-2,3.8,1.1,4.7c1,0.3,1.9,0.8,2.6,1.6
		c0.1,0.8-0.2,1.4-0.8,1.9C104.5,66.3,101.1,66.9,98.1,64.1z"/>
	<path class="st35" d="M90.4,63c-1.4-0.2-2.6-0.6-2-2.4c5.2-14.6,4.6-30,5.8-45.2c1.3,0,2.6,0,3.9,0c2.2,2.5,2,5.6,1.8,8.5
		c-0.6,10.2-1.5,20.3-3.1,30.4C96.3,58.5,94.4,61.5,90.4,63z"/>
	<path class="st66" d="M90.4,63c5-4.6,5.8-11,6.2-17c0.7-10.2,2.3-20.3,1.5-30.5c1.3,0,2.6,0,3.9,0c0.1,16-2.1,31.9-5.1,47.6
		C94.7,63,92.6,63,90.4,63z"/>
	<path class="st67" d="M108.4,64.1c0-0.4,0-0.7,0-1.1c-1.3-4.4,1.6-8.1,2.1-12.3c1.1-10.4,2.7-20.7,2.7-31.2c0-1.5,0.6-2.9,1.7-4.1
		c1.3,0,2.6,0,3.9,0c3.5,6.4,2,13.4,1.4,20c-0.6,7.6-0.6,15.3-2.4,22.7c-1.8,2.4,0.6,3.9,1.3,5.9c-0.3,0.6-0.8,1.1-1.4,1.3
		C114.4,66.2,111.2,66.8,108.4,64.1z"/>
	<path class="st68" d="M105.9,63c-1.9-0.2-3.8,0.5-4.9-0.2c5.4-15.5,6.3-31.4,6.2-47.3c1.3,0,2.6,0,3.9,0c2,2.3,1.7,5.1,1.9,7.8
		c0.7,11.1-2,21.8-3.1,32.7C109.5,59,107.4,60.8,105.9,63z"/>
	<path class="st69" d="M105.9,63c4.2-13.2,5.6-26.7,5.2-40.5c-0.1-2.3,0-4.7,0-7c1.3,0,2.6,0,3.9,0c1,12.9-1.6,25.6-2.9,38.3
		c-0.3,3.2-2.3,6.2-3.6,9.2C107.6,63,106.7,63,105.9,63z"/>
	<path class="st70" d="M116.1,60.4c1.1-15,3.3-29.9,2.6-45c0.4,0,0.9,0,1.3,0c0.4,0,0.9,0,1.3,0c1.7,1.9,1.9,4.2,2,6.6
		c0.3,10.9-0.1,21.8-1.6,32.6C121.3,57.6,121,61.4,116.1,60.4z"/>
	<path class="st48" d="M166.3,63c2.1,0,4.3,0,6.4,0c0,0.4,0,0.7,0,1.1c-6.3,3.9-13,1.8-19.6,1.5c-1.6-0.4-2.9-1.2-3.9-2.5
		c-0.8-2.4,0.7-3.6,2.5-4.6c2.4-1.4,2.3-3.7,2.3-6.1c0.1-9.7,0.2-19.4,0.2-29.2c0-2.7-0.3-5.6,1.8-7.8c0.9,0,1.7,0,2.6,0
		c2.3,1.7,4.1,3.8,4.1,6.8c0.1,8.2,1.4,16.6-1.3,24.7c-1.4,4,0.5,8.1-0.6,12C160.4,63.2,165.3,60.5,166.3,63z"/>
	<path class="st71" d="M158.6,60.4c0.3-0.8,1.1-1.6,1-2.3c-1.7-11.3,3.1-22.3,1.8-33.7c-0.4-3.4-2.4-5.8-2.8-8.9c1.7,0,3.4,0,5.1,0
		c0,0,0,0,0,0c2.3,2.4,2.5,5.3,2.5,8.4c0.1,10.5,0.2,20.9-0.7,31.3C165.1,60.8,163.9,61.7,158.6,60.4z"/>
	<path class="st47" d="M156,15.4c0,12.4,0,24.8,0,37.2c0,3.1,0.5,6.7-3.8,7.7c-4.6-6.7-1.8-14.1-1.5-21.1c0.3-6.8,1.3-13.5,0.4-20.3
		c-0.2-1.3,0.2-2.5,1.1-3.6c0,0,0,0,0,0C153.4,15.4,154.7,15.4,156,15.4z"/>
	<path class="st72" d="M59.5,155.6c-1.8,5.1-5.7,6.9-10.6,8.8c-9.9,3.7-19.8,6.3-30.4,5.4c0-1.7,0-3.4,0-5.1c1.3-1.2,3-1.8,4.7-1.9
		c10.8-0.7,20.7-4.8,30.5-8.9c1.8-0.8,3.7-1.1,5.5-0.1C59.8,154.3,59.9,154.9,59.5,155.6z"/>
	<path class="st73" d="M59.7,154.3c-6.3,0.1-11.8,3.5-17.2,5.8c-7.9,3.5-16,3.4-24,4.4c0-2.1,0-4.3,0-6.4c12.8,1.6,24-3.3,35-9.1
		c1.1-0.6,2.4-0.8,3.6-1.2c1.6,1.3,2.1,3.2,3,4.9C60.1,153.3,60,153.8,59.7,154.3z"/>
	<path class="st74" d="M138,15.4c1.7,0,3.4,0,5.1,0c0,0,0,0,0,0c2.2,2.5,1.9,5.5,1.9,8.5c0.1,11.9,0.2,23.9-0.4,35.8
		c-0.1,1.2-0.4,2.4-1.1,3.4c-1.6,1.5-3.6,1.5-5.7,1.5c-1.6-0.1-3.2-0.4-4.2-1.9c3.2-13.2,2.4-26.6,2.5-40
		C136.2,20.2,136.1,17.5,138,15.4z"/>
	<path class="st75" d="M134.1,63c1.3,0,2.6,0,3.9,0c0.4,0.7,0.3,1.4-0.4,1.9c-2.8,1.5-5.7,1.2-8.6,0.4c-1.4-0.6-2.8-1.3-3.2-3
		c2.8-13.5,4-27.2,4-40.9c0-2.1,0.3-4.2,1.8-5.9c0,0,0,0,0,0c1.3,0,2.6,0,3.9,0c1.6,1.8,1.3,4,1.3,6.1c0,13.3,0.2,26.7-3.2,39.8
		C133.3,61.9,133.8,62.5,134.1,63z"/>
	<path class="st76" d="M134.1,63c-2.8-0.3-1.9-1.9-1.6-3.7c2-14.6,3.4-29.2,2.9-43.9c0.9,0,1.7,0,2.6,0c-0.6,13.3,1.1,26.7-1.1,40.1
		C136.5,58.4,134.7,60.4,134.1,63z"/>
	<path class="st77" d="M131.6,15.4c0.3,13.4-0.5,26.7-2.4,40c-0.4,2.9-2.2,4.9-2.8,7.5c-2.1,1.9-4.3,1.8-6.6,0.3
		c2.5-9.1,3.3-18.5,4-27.9c0.3-4.4,0.7-8.9,0.7-13.3c0-2.4,0.2-4.7,1.9-6.6C128.1,15.4,129.9,15.4,131.6,15.4z"/>
	<path class="st63" d="M126.4,15.4c0.3,13.1-1.2,26.1-2.4,39.2c-0.3,3.5-3.3,5.3-4,8.4c-0.4,0.5-0.9,0.4-1.3,0
		c-1.5-0.3-3.5,0.7-4.3-1c-0.7-1.3,0.9-1.3,1.8-1.6c3.6-0.7,3.5-3.6,3.9-6.4c1.6-12.8,1.2-25.7,1.3-38.6
		C123,15.4,124.7,15.4,126.4,15.4z"/>
	<path class="st75" d="M18.4,189c0-1.3,0-2.6,0-3.9c2.8-1.6,5.8-3,9-2.9c14.4,0.5,26.5-5.5,38.2-13c2.4,1.3,3.6,3.3,3.7,6
		c-0.4,2-1.8,3.4-3.6,4.3c-12.1,6-24.5,11.3-38.3,11.9C24.2,191.7,21.1,191.2,18.4,189z"/>
	<path class="st78" d="M18.4,189c17.3,3.2,32.2-4.4,47.3-11c1.2-0.5,2-2.2,2.9-3.3c2.6,0,2.9,1.8,3,3.8
		c-9.3,7.3-20.2,11.3-31.5,14.3c-7.1,1.9-14.4,1.3-21.6,1.4C18.4,192.4,18.4,190.7,18.4,189z"/>
	<path class="st79" d="M65.8,169.7c-2.2,4.7-7,6.2-11.1,8c-8.5,3.6-17.1,7.3-26.8,6.3c-3.1-0.3-6.3,0.7-9.4,1.2c0-0.9,0-1.7,0-2.6
		c15.9-3.2,31.9-6.1,46.3-14.2C65.9,168.2,66.4,168.5,65.8,169.7z"/>
	<path class="st80" d="M143.1,60.4c0-7.6,0-15.1,0-22.7c0-7.4,0-14.9,0-22.3c2.1,0,4.3,0,6.4,0c2.1,3.2,1.9,6.9,1.9,10.5
		c-0.1,9.8-1.3,19.5-2.2,29.2C149,58.2,148.6,62.6,143.1,60.4z"/>
	<path class="st81" d="M143.1,60.4c2.6,0.2,3.6-1,4-3.7c2-13.7,2.7-27.5,2.5-41.3c0.9,0,1.7,0,2.6,0c3.3,11.4-0.2,22.9-0.4,34.3
		c-0.1,3.6,1.1,7.1,0.4,10.7c-1.7,0-2.5,0.9-2.6,2.6c-2.1,1.9-4.3,1.9-6.4,0C143.1,62.1,143.1,61.3,143.1,60.4z"/>
	<path class="st31" d="M158.6,60.4c3.2,0.3,5-0.4,5.3-4.4c0.8-13.6,2.3-27.1-0.1-40.6c1.3,0,2.6,0,3.9,0c0,15,0,30,0,45
		c-1,0.6-1.3,1.5-1.3,2.6c-2.3,0-4.6,0.1-6.9-0.1C157.7,62.7,157.3,61.8,158.6,60.4z"/>
	<path class="st82" d="M418.2,62.8c0.1-1.2,0.2-2.3,0.3-3.5c1.6-2.5,0.8-5.8,2.7-8.2c2.3,0.1,3.7,1.8,3.9,3.6
		c0.8,5,3.1,9.6,3.9,14.6c0.5,2.9,2.2,5.5,2.2,8.6c1.1,3.8,2.3,7.6,3.1,11.5c-0.7,3.1,3.4,5.9,0.7,9.2c-7.1,4-14.7,2.3-22.1,1.3
		c-1.7-0.2-2.5-2.1-3.1-3.7c-1.8-5,2.3-8.7,2.8-13.2c0.3-2.7,1.7-5.2,1.9-7.9c0.2-1,0.6-1.9,0.7-2.9
		C416.7,69.1,416.7,65.7,418.2,62.8z"/>
	<path class="st83" d="M415.5,74.6c-0.2,7.2-4.1,13.5-5,20.6c-0.1,2,0.3,3.9,0,5.9c-0.3,1-0.7,1.9-1.8,2.4c-2.7,0.2-2.8-1.4-2.4-3.4
		c1.7-9.2,4.7-18.1,8-26.8C415.1,73.3,415.2,74.1,415.5,74.6z"/>
	<path class="st84" d="M428.5,69.6c-1.3-4.2-2.8-8.3-3.7-12.6c-0.6-2.4-1.3-4.4-3.7-5.4c-0.5,0.5-1,0.4-1.3-0.2c0.1-2.7,1.2-5,3-8.7
		c2.6,9.3,4.8,17.4,7,25.4C429.3,68.6,429.2,69.4,428.5,69.6z"/>
	<path class="st85" d="M406.3,100c0.1,1.9,0.8,3.1,3,2.7c4.9-3,10.3-1.3,15.4-1.6c3.6-0.2,7.2-0.2,10.7,0.1c1.2,0.2,2.3,0.7,3.2,1.5
		c0,0.5,0.1,0.9,0.1,1.4c-11.1,1-22.3,1.2-33.4-0.1C405.5,102.6,404.8,101,406.3,100z"/>
	<path class="st86" d="M405.5,104c11.1,0,22.3,0.1,33.4,0.1c-8.6,2.8-17.5,0.7-26.3,1.2C410.2,105.5,407.4,106.4,405.5,104z"/>
	<path class="st87" d="M433.4,89.1c-2.2-3.2-2.1-7.2-3.4-10.7c1.2-1.5-0.4-3.7,1.1-5.2c1.8,4.6,3,9.3,3.7,14.2
		C434.4,88.1,434.3,88.9,433.4,89.1z"/>
	<path class="st88" d="M433.4,89.1c0.5-0.6,1-1.1,1.4-1.7c0,5.4,4.5,9.7,3.9,15.3c-0.8,0-1.7,0-2.5-0.1c-1.1-1.1-1.4-2.5-1.4-4
		c0-0.3,0-0.6-0.1-0.9C434.3,94.9,433.9,92,433.4,89.1z"/>
	<path class="st89" d="M418.2,62.8c0.1,3.4-0.5,6.6-2.3,9.5c-0.8-0.2-0.9-1-1.2-1.5C416,68.1,414.5,64.3,418.2,62.8z"/>
	<path class="st90" d="M431.2,73.2c-0.4,1.7,0.6,3.8-1.1,5.2c-0.5-3-1-5.9-1.5-8.9c0.4-0.5,0.8-1,1.2-1.4
		C430.2,69.8,430.7,71.5,431.2,73.2z"/>
	<path class="st91" d="M419.7,51.4c0.4,0.1,0.9,0.1,1.3,0.2c-0.5,2.7,0.9,6-2.5,7.7C417.6,56.4,419.5,54.1,419.7,51.4z"/>
	<path class="st90" d="M414.7,70.7c0.4,0.5,0.8,1,1.2,1.5c-0.1,0.8-0.3,1.5-0.4,2.3c-0.4-0.5-0.8-0.9-1.2-1.4
		C414.4,72.3,414.6,71.5,414.7,70.7z"/>
	<path class="st90" d="M65.8,169.7c-0.3-0.4-0.7-0.9-1-1.3c-0.5-1.2-0.9-2.4-1.4-3.6c-1.3-3.1-2.6-6.2-3.9-9.2
		c0.1-0.3,0.2-0.5,0.3-0.8c0-0.1-0.1-0.3-0.1-0.5c0-0.4-0.1-0.9-0.1-1.3c-1.9-2.8-1.2-6.2-2.5-9.2c0.3-1.2,0.6-2.5,0.8-3.7
		c0-22.8,0.2-45.6-0.1-68.3c-0.1-5.3,0.7-8.6,6.9-7.7c1.7,0,3.4,0,5.1,0c5.1,0,10.3,0,15.4,0c4.3,0,8.6,0,12.9,0c3.4,0,6.9,0,10.3,0
		c3.4,0,6.9,0,10.3,0c3.4-0.7,6.8-0.7,10.3,0c3,0,6,0,9,0c4.7-0.7,9.4-0.7,14.1,0c6.9,0,13.7,0,20.6,0c3-0.1,4,1.1,3.9,4.2
		c-0.3,9-0.1,18-0.2,27c-2.6,2.2-5.7,1.6-8.6,1.6c-24.3,0.1-48.7-0.1-73,0.2c-2.2,0-4.8-0.8-6.5,1.5c-2.1,3.4-0.9,7.1-1.2,10.6
		c-0.4,4.5,1.7,5.9,6,5.9c14.9-0.1,29.8,0.1,44.8,0c5.9,0.3,11.9-0.5,17.9,0.5c0.8,0.3,1.4,0.8,1.9,1.4c0.5,8.3,0.1,16.6,0.2,24.9
		c0,2.2-0.4,4.2-1.8,6c-5.5,0.8-11,2.1-16.7,1.6c-5.5,0-11.1,0-16.6,0c-3.8,0-7.7,0-11.5,0c-3.9,0-7.8,0-11.7,0
		c-2.9-0.1-5.9-0.2-8.8-0.5c-1.7-0.1-0.1,1.1-0.2,1.6c1.4,3,2.9,6,5.5,8.1c1.7,2.2,4.1,2.9,6.7,3.5c2.3,0.6,4.6,0.8,6.7,1.9
		c7.1,2.2,14.5,0.5,21.7,1.1c2.9,0.2,6.1-0.7,8.4,2c0,10.2,1.1,20.4-0.6,30.6l0.1-0.2c-9.4,1.7-18.8,0.8-28.2,0.5
		c-2.9-0.1-5.8-0.3-8.7-0.4c-2-1.3-4.2-1.1-6.4-1.3c-0.3-2.6-2.2-2.6-4.1-2.5c-2-1.4-4.1-2.3-6.5-2.6c-0.3-3.6-4.3-1.6-5.5-3.8
		c0.3-2.7-1.6-3.1-3.5-3.6c-2.9-0.3-1.1-4.1-3.6-4.7c-0.4-0.3-0.7-0.6-1.1-0.9c-1-1.3-2-2.5-3-3.8C67.7,173.1,66.7,171.4,65.8,169.7
		z"/>
	<path class="st92" d="M86.6,97.8c1-3.5,3.9-2,5.9-2c25.6-0.1,51.3-0.1,76.9-0.2c2.3,0,4.7-0.2,7-0.3c0,0.8,0,1.6,0,2.4
		c-3.7,1.5-7.6,0-11.3,0.9c-3,1.2-6.1,0.8-9.1,0.9c-4.2,0-8.5,0-12.7,0c-3.8,0-7.7,0-11.5,0c-3.8,0-7.7,0-11.5,0c-3,0-6,0-9,0
		c-4.7,0.2-9.4-0.6-14.1,0.7c-5.5,0-8.2,2.4-7.5,8.2c0.2,1.9-0.1,3.8-1.3,5.5c-1.6,1.2-2.3,0.1-2.3-1.3
		C86.2,107.6,85.2,102.7,86.6,97.8z"/>
	<path class="st93" d="M114.9,201.9c-2.7,6.6-8.3,10.9-13.6,14.9c-9.8,7.4-20.4,14.1-31.7,18.7c-6.6,2.7-13.7,5.2-21,6.7
		c-5.1,1-9.8,0.8-14.7,0.9c5.3-1.7,10.6-3.5,16.3-4.1c10-1,19.3-5,27.8-10.2c12.4-7.6,25.2-14.9,34.3-26.9
		C113.1,201.9,114,201.9,114.9,201.9z"/>
	<path class="st94" d="M139.2,167.2c-8.4-1.2-16.9-0.3-25.4-0.6c-2-0.1-4.4,0.8-5.4-2c0.3-0.3,0.5-0.5,0.8-0.8
		c4.2-1.8,8.6-0.7,12.9-1c5-0.4,10,1,14.9-0.7c2.7-4.5,3.5-10.1,8-13.5c2,0.1,4-0.6,5.9,0.6c-3.2,6.1-3.5,13.9-10.3,18
		C140.1,167.9,139.7,167.9,139.2,167.2z"/>
	<path class="st95" d="M157,117.1c-0.4,0.1-0.8,0-1.1-0.3c-1.8-1.9-4.9-0.2-6.6-2.3c-0.2-0.6-0.1-1.2,0.2-1.8c2.6-2.1,4-4.9,4.7-8.2
		c0.4-2.3,0.6-4.8,3.2-5.9c2.3-0.4,4.6-0.2,6.8-0.1c0.3,0.2,0.5,0.4,0.8,0.6c-1.8,6.1-2.8,12.5-6.4,18
		C158.1,117.7,157.6,117.8,157,117.1z"/>
	<path class="st96" d="M175.3,167.3c0.4-0.2,0.8-0.2,1.2,0c2.4,10.2,1.7,20.4,0.4,30.7c-7.9,0.7-15.9,1.9-23.8-0.7
		c3.3-4,7.9-2.3,11.9-2.4c7.9-0.4,8.2-0.5,8.3-8.4c0.1-13.9,0.1-13.9-14.1-14.8c-1.9-0.1-3.9-0.2-5.5-1.4c-0.6-0.6-0.7-1.3-0.3-2
		C160.7,167,168,168.6,175.3,167.3z"/>
	<path class="st97" d="M153.6,168.4c0,0.4,0,0.8,0,1.3c3,9,3,18,0,27c2.8,3.4,6.5,1.1,9.8,1.4c4.4,0.4,8.8-0.1,13.2-0.1
		c0.4-0.5,0.8-0.5,1.2-0.1c-8.6,2.3-17.1,2.3-25.7,0c-1-10.3-1-20.5,0-30.8c0.5,0,0.9,0,1.4,0c0.4,0.3,0.5,0.5,0.4,0.8
		C153.8,168.3,153.7,168.4,153.6,168.4z"/>
	<path class="st98" d="M157,117.1c0.5,0,1-0.1,1.6-0.1c0,8.5,0,17,0,25.5c0,2.5,0.4,5.2-2.6,6.6c-0.7-0.5-0.7-1-0.1-1.6
		C158.3,137.5,156.6,127.3,157,117.1z"/>
	<path class="st99" d="M177.8,198c-0.4,0-0.8,0-1.2,0.1c0-10.2-0.1-20.5-0.1-30.7c0.4-0.2,0.8-0.2,1.2-0.2
		C179,177.4,178.8,187.7,177.8,198C177.9,198,177.8,198,177.8,198z"/>
	<path class="st100" d="M152.1,167.2c0,10.3,0,20.5,0,30.8C150,187.7,150,177.4,152.1,167.2z"/>
	<path class="st101" d="M139.2,167.2c0.5,0,0.9,0,1.4,0c0,8.3,0,16.6,0,24.9c0,2,0.8,4.3-1.4,5.9
		C139.2,187.7,139.2,177.4,139.2,167.2z"/>
	<path class="st102" d="M177.9,198c-0.1-10.3-0.1-20.6-0.2-30.8c2.8,3.6,1.4,7.7,1.3,11.6C178.8,185.1,180.7,191.7,177.9,198z"/>
	<path class="st103" d="M111,198.3c9.4-0.3,18.8,0.6,28.2-0.5c-2.3,3-5.6,1.4-8.3,1.5c-6.6,0.2-13.2,0-19.9,0
		C111,199,111,198.6,111,198.3z"/>
	<path class="st104" d="M176,164.3c-7,0-14,0-21,0c0-0.2,0-0.4,0-0.6c7.2,0,14.4,0,21.5,0C176.3,163.9,176.1,164.1,176,164.3z"/>
	<path class="st105" d="M153.6,168.4c0-0.4-0.1-0.8-0.1-1.3c7.3,0.1,14.5,0.1,21.8,0.2C168.2,169.7,160.8,167.8,153.6,168.4z"/>
	<path class="st106" d="M155.9,147.6c0,0.5,0.1,1,0.1,1.6c-1.7,0-3.4,0-5.1,0c-2.1,0-4.3,0-6.4,0c-1.6,1.3-3.2,1.5-5,0.4
		c-0.6-0.6-0.6-1.2-0.1-1.9C144.8,147,150.4,147.1,155.9,147.6z"/>
	<path class="st107" d="M165,98c3.8-0.1,7.6-0.2,11.4-0.3c-3.5,2.7-7.6,0.6-11.4,1.3c0,0,0,0,0,0c-0.4-0.2-0.6-0.5-0.4-0.7
		C164.7,98.1,164.9,98,165,98z"/>
	<path class="st108" d="M56.7,104.2c0,6.4,0,12.9,0,19.3c-0.3,0.5-0.7,0.5-1,0c0-2.1,0-4.3,0-6.4c0-2.1,0-4.3,0-6.4
		c0-2.1,0-4.3,0-6.4c0,0,0,0,0,0C56.1,103.6,56.4,103.6,56.7,104.2z"/>
	<path class="st109" d="M55.7,123.4c0.3,0,0.7,0,1,0c0.1,5.5,0.1,11.1,0.2,16.6c-0.4,0.1-0.8,0.1-1.2,0.1c0-1.3,0-2.6,0-3.9
		c0-1.7,0-3.4,0-5.1c0-2.1,0-4.3,0-6.4C55.7,124.3,55.7,123.9,55.7,123.4z"/>
	<path class="st110" d="M57.1,143.8c2.8,2.5,2.1,6,2.5,9.2c-2.3-1-2.7-2.9-2.6-5.1C57,146.5,57,145.2,57.1,143.8z"/>
	<path class="st111" d="M55.7,74.6c0-2.9,0-5.8,0-8.8c0.3,0,0.7,0,1,0c0,7.2,0,14.4,0,21.6c-0.3,0.5-0.7,0.5-1,0c0-0.9,0-1.7,0-2.6
		C55.7,81.4,55.7,78,55.7,74.6z"/>
	<path class="st112" d="M55.7,87.4c0.3,0,0.7,0,1,0c0,5.6,0,11.1,0,16.7c-0.3,0-0.7,0-1,0c0-2.6,0-5.1,0-7.7c0-2.1,0-4.3,0-6.4
		C55.7,89.1,55.7,88.3,55.7,87.4z"/>
	<path class="st70" d="M129,64.1c-3.4,0-6.8,0-10.3,0c0-0.4,0-0.7,0-1.1c0.4,0,0.9,0,1.3,0c2.1,0,4.3,0,6.4,0
		C127.3,63.4,128.1,63.7,129,64.1z"/>
	<path class="st76" d="M152.1,64.1c-4.7,0-9.4,0-14.1,0c0-0.4,0-0.7,0-1.1c1.7,0,3.4,0,5.1,0c2.1,0,4.3,0,6.4,0
		C150.4,63.4,151.3,63.7,152.1,64.1z"/>
	<path class="st113" d="M409.4,100c0.8-1.5-0.8-3.6,1.1-4.9c1.4,3.4,4,4.3,7.5,3.9c5.6-0.6,11.3,1.1,16.8-1.2c0,0,0.3-0.2,0.3-0.2
		c0.8,1.7,0.2,3.3-1.5,3.4C425.5,101.3,417.4,103.1,409.4,100z"/>
	<path class="st114" d="M409.4,100c7.2,0.1,14.5,0.2,21.7,0.3c1.9,0,4,0.4,4-2.6c1.8,1.4,1,3.3,1.1,5c-9,0-17.9,0-26.9,0
		C409.4,101.8,409.4,100.9,409.4,100z"/>
	<path class="st115" d="M86.6,97.8c0.1,5.1,0.1,10.2,0.2,15.2c0,0.1,0.3,0.3,0.4,0.3c0.2,0,0.4-0.1,0.6-0.2c1.1-1,2.4-1.6,3.9-1.6
		c2.5-0.2,4.9-0.2,7.4-0.1c1.7,0,3.5,0.2,5.1,0.7c5,1.4,10,0.2,15,0.5c4.7,0,9.4,0,14.1,0c1.5,0.1,3,0.2,4.2,1.1
		c1,0.9,1.1,1.8,0.3,2.9c-16,0.1-31.9,0.1-47.9,0.3c-3.2,0-4.9-0.8-4.5-4.2C86.2,107.8,84.5,102.6,86.6,97.8z"/>
	<path class="st80" d="M108.4,164.6c-2.2,0.1-4.5,0.5-6.6-0.9c-2.4-3.8,0.7-6.2,2.5-8.8c1.5-2.2,2.9-4.5,5.3-6.1
		c0.6-0.2,1.3-0.3,2-0.3c3,0,6-0.1,9,0c2.8,1.8,1.1,3.8-0.2,5.2c-2.5,3.1-4.3,6.7-7.3,9.4c-1.2,1-2.9,0.2-4.2,1.1L108.4,164.6z"/>
	<path class="st116" d="M109.7,149.2c-0.7,3.7-3.7,6-5.7,8.8c-1.3,1.8-2.1,3.5-2.1,5.7c-2.7-0.4-5.7-0.4-6.4-4.1
		c0.1-5.1,3.4-8.3,7.2-11C105,148.8,107.5,147.9,109.7,149.2z"/>
	<path class="st117" d="M102,149.2c-0.9,4.2-4.8,6.6-6.5,10.4c-4.1-1.1-4.3-5.1-6.2-7.9c1.3-5.3,5.7-2.4,8.6-3.2
		C99.3,148.6,100.8,148.2,102,149.2z"/>
	<path class="st118" d="M138,116.7c0-0.7,0-1.5,0-2.2c3.8-2.8,7.7-2.3,11.6-0.1c2.2,0.7,5.4-1.6,6.4,2.4
		C150,116.7,144,116.7,138,116.7z"/>
	<path class="st119" d="M139.3,147.7c0,0.5,0,1,0,1.5c-0.5,0.6-1,1-1.7,1.2c-2.1,0.6-4.2,0.5-6.4,0.6c-2.9-0.1-5.9,0.4-8.5-1.3
		c-0.6-0.6-0.6-1.3-0.1-1.9C128.1,147.1,133.7,147,139.3,147.7z"/>
	<path class="st120" d="M98.1,149.1c-3.1,0.2-6.6-0.9-8.8,2.5c-2.3-3.9-1.5-5.5,3.2-4.4c1.8,0.4,3.7,0.3,5.6,0.4
		c0.4,0.3,0.6,0.6,0.4,1C98.4,149,98.3,149.1,98.1,149.1z"/>
	<path class="st121" d="M98.1,149.1c0-0.5,0-1,0-1.5c4.3-0.6,8.6-0.6,12.9,0c0.4,0.3,0.6,0.6,0.4,1c-0.1,0.3-0.3,0.5-0.4,0.5
		c-0.4,0-0.9,0-1.3,0c-2.6,0-5.1,0-7.7,0C100.7,149.1,99.4,149.1,98.1,149.1z"/>
	<path class="st122" d="M111,149.1c0-0.5,0-1,0-1.5c3.9-0.6,7.7-0.6,11.6,0c0,0.5,0,1,0,1.4c-0.4,0.5-0.9,0.5-1.3,0
		C117.9,149.1,114.4,149.1,111,149.1z"/>
	<path class="st69" d="M91.7,113.1c-1.3,0-2.6,0-3.9,0c0-1.7,0-3.3,0-5c0.1-10.2-0.9-9,9-9.1c0.5-0.6,1.1-0.6,1.6,0
		C98.7,104.9,96.2,109.5,91.7,113.1z"/>
	<path class="st123" d="M98.1,99c-0.4,0-0.9,0-1.3,0c4.6-2.5,9.4-0.8,14.2-1c0.3,0.8,0.1,1.3-0.6,1.8c-2,1-4.1,0.9-6.2,1
		C102,100.7,99.8,100.7,98.1,99z"/>
	<path class="st124" d="M143.2,98c4.3,0,8.6,0,12.9,0c0.4,0.7,0.2,1.2-0.5,1.6c-1.5,0.9-3.1,0.9-4.8,1c-2.3,0-4.6,0.2-6.8-0.9
		C143.4,99.3,143.1,98.7,143.2,98z"/>
	<path class="st125" d="M120,98c3.9,0,7.7,0,11.6,0c0.3,0.7,0.1,1.3-0.5,1.7c-1.5,0.8-3.1,0.9-4.8,0.9c-2,0-4,0.1-5.8-0.9
		C119.8,99.3,119.7,98.7,120,98z"/>
	<path class="st126" d="M131.6,99c0-0.3,0-0.7,0-1c3.9,0,7.7,0,11.6,0c0,0.3,0,0.7,0,1c-0.2,0.2-0.5,0.5-0.7,0.7
		c-2.6,1.3-5.4,1-8.2,0.7C133.2,100.3,132.3,99.9,131.6,99z"/>
	<path class="st127" d="M120,98c0,0.3,0,0.7,0,1c-0.4,0.5-0.9,0.9-1.6,1.1c-1.9,0.5-3.9,0.5-5.9,0c-0.6-0.2-1.2-0.6-1.6-1.1
		c0-0.3,0-0.7,0-1C114,98,117,98,120,98z"/>
	<path class="st128" d="M156,99c0-0.3,0-0.7,0-1c3,0,6,0,9,0c0,0.3,0,0.7,0,1c-2.6,0-5.1,0-7.7,0C156.9,99.5,156.4,99.6,156,99z"/>
	<path class="st31" d="M138,149.1c0.4,0,0.9,0,1.3,0c1.7,0,3.4,0,5.1,0c-1.2,5.1-4.4,9.4-6.4,14.1c-1.9,1.2-4,0.5-5.9,0.5
		C130.4,157.5,135.4,153.8,138,149.1z"/>
	<path class="st129" d="M131.6,163.3c2.1,0,4.3,0,6.4,0c-5,2.6-10.2,0.7-15.4,1c-0.4-0.7-0.2-1.2,0.4-1.7c0.9-0.5,1.9-0.8,2.9-0.9
		C128,161.7,130,161.7,131.6,163.3z"/>
	<path class="st130" d="M122.6,163.3c0,0.3,0,0.7,0,1c-4.6,0-9.1,0-13.7,0.1c0.7-1.6,2.2-0.9,3.3-1.1
		C115.7,161.3,119.1,160.5,122.6,163.3z"/>
	<path class="st46" d="M156,99c0.4,0,0.9,0,1.3,0c-0.9,3.4-1.8,6.9-2.8,10.3c-0.7,2.4-2,4.2-5,3.8c-0.7,0.5-1.3,0.5-1.8-0.2
		c-1.2-5.1,0.5-9.6,3.1-13.9C152.6,99,154.3,99,156,99z"/>
	<path class="st131" d="M148.3,113.1c0.4,0,0.9,0,1.3,0c0,0.4,0,0.8,0,1.3c-3.9,0-7.7,0.1-11.6,0.1c-1.3,0-2.6-0.1-3.8-0.1
		c-0.4-0.7-0.3-1.4,0.4-1.9c1.6-1,3.5-1.1,5.3-1.1C142.8,111.4,145.8,111,148.3,113.1z"/>
	<path class="st105" d="M153.6,196.7c0-9,0-18,0-27c5.6,0,11.1,0.2,16.7-0.1c4-0.2,5.3,1.4,5.1,5.2c-0.2,5.5-0.2,11.1,0,16.6
		c0.2,3.8-1.1,5.4-5.1,5.2C164.7,196.5,159.1,196.7,153.6,196.7z"/>
	<path class="st132" d="M111,99c0.4,0,0.9,0,1.3,0c0.7,5.6-1.6,10.2-4.9,14.4c-1,0.4-1.9,0.5-2.8-0.3c-1.7,0-3.4,0-5.1,0
		c-2-6.1,2.4-9.8,5.1-14.1C106.7,99,108.9,99,111,99z"/>
	<path class="st67" d="M104.6,99c0.1,5.4-5.2,8.8-5.1,14.1c-2.6,0-5.1,0-7.7,0c2.4-4.6,4.9-9.1,6.4-14.1C100.3,99,102.4,99,104.6,99
		z"/>
	<path class="st118" d="M104.6,113.1c0.9,0,1.7,0,2.6,0c2.1-1.9,4.6-1.8,7.1-1.7c1.4,0.1,2.8,0.3,4.1,1.1c0.6,0.5,0.8,1.1,0.4,1.8
		C114,113.6,109.1,116.1,104.6,113.1z"/>
	<path class="st133" d="M118.7,114.4c0-0.4,0-0.8,0-1.2c0.7-0.9,1.7-1.3,2.8-1.5c2.9-0.4,5.8-0.3,8.7-0.2c1.5,0.1,2.9,0.4,3.9,1.7
		c0,0.4,0,0.8,0,1.2C129,114.4,123.9,114.4,118.7,114.4z"/>
	<path class="st134" d="M122.6,163.3c-3.4,0-6.9,0-10.3,0c3-4.7,6-9.4,9-14.1c0.4,0,0.9,0,1.3,0c3,0,6,0,9,0
		c0.5,5.9-3.5,9.8-6.4,14.1C124.3,163.3,123.4,163.3,122.6,163.3z"/>
	<path class="st46" d="M125.1,163.3c0.6-5.4,4.7-9.2,6.4-14.1c2.1,0,4.3,0,6.4,0c-0.5,5.5-4.4,9.4-6.4,14.1
		C129.4,163.3,127.3,163.3,125.1,163.3z"/>
	<path class="st135" d="M148.3,113.1c-3,0-6,0-9,0c-2-5.6,0.9-9.9,3.9-14.1c0,0,0,0,0,0c2.6,0,5.1,0,7.7,0
		C151.2,103.9,148.4,108.3,148.3,113.1z"/>
	<path class="st74" d="M130.3,113.1c-3,0-6,0-9,0c-0.9-5.6,1-10.3,5.1-14.1c1.7,0,3.4,0,5.2,0c0.9,0,1.7,0,2.6,0
		C136.9,104.8,134,109.1,130.3,113.1z"/>
	<path class="st136" d="M126.4,99c-1.7,4.7-3.4,9.4-5.1,14.1c-0.9,0-1.7,0-2.6,0c-1.3,0-2.6,0-3.9,0c-2.1-5.6,2-9.6,3.9-14.1
		c0.4,0,0.9,0,1.3,0C122.1,99,124.3,99,126.4,99z"/>
	<path class="st137" d="M130.3,113.1c1-4.8,4.4-8.9,3.9-14.1c3,0,6,0,9,0c-1.3,4.7-2.6,9.4-3.9,14.1c-1.7,0-3.4,0-5.1,0
		C132.9,113.1,131.6,113.1,130.3,113.1z"/>
	<path class="st77" d="M118.7,99c0.9,5.3-3.6,9.1-3.9,14.1c-2.6,0-5.1,0-7.7,0c1.7-4.7,3.4-9.4,5.1-14.1C114.4,99,116.6,99,118.7,99
		z"/>
</g>
</svg>
